# xmcd
#
# Track frame offsets:
#	150
#	19762
#	31091
#	46134
#	66583
#	76103
#	88388
#	107538
#	123853
#	133077
#	143275
#	160595
#
# Disc length: 2392 seconds
#
# Revision: 1
# Processed by: cddbd v1.5.1PL0 Copyright (c) Steve Scherf et al.
# Submitted via: audiograbber 1.83.01
#
DISCID=8e09560c
DTITLE=Acoustic Rescue - Traders Of Bokhara
DYEAR=2000
DGENRE=Blues
TTITLE0=Traders Of Bokhara
TTITLE1=Sheherazade
TTITLE2=Women ain't
TTITLE3=Dangerous Territory
TTITLE4=Driftwood Sign
TTITLE5=Me and the Boys
TTITLE6=Rain upon dry Land
TTITLE7=So lonesome
TTITLE8=The Lycanthrope
TTITLE9=Ode to Joe
TTITLE10=Song for Us
TTITLE11=Mexican Lady
EXTD=
EXTT0=
EXTT1=
EXTT2=
EXTT3=
EXTT4=
EXTT5=
EXTT6=
EXTT7=
EXTT8=
EXTT9=
EXTT10=
EXTT11=
PLAYORDER=
